<svg width="240" height="240" viewBox="0 0 240 240" fill="none" xmlns="http://www.w3.org/2000/svg">
<path d="M77.679 46.0304C74.2866 47.0261 70.7246 49.4417 67.4503 53.3505M67.4503 53.3505C64.1759 57.2593 46.6832 83.0276 49.6263 100.587C51.9776 114.617 84.0681 111.097 99.8806 107.573C99.9223 107.563 99.9627 107.56 100.005 107.561C101.5 107.608 103.855 107.417 101.778 106.283M67.4503 53.3505C74.179 54.8027 78.0188 57.21 79.0145 60.6025C81.5038 69.084 75.0746 81.7392 71.179 89.5304M101.778 106.283C99.1451 104.845 99.1451 91.0923 101.778 92.5304C102.158 92.7379 102.514 92.9644 102.757 93.0173M101.778 106.283C109.405 107.271 125.922 102.887 125.179 101.03C124.205 98.5944 116.589 102.327 116.195 101.135C116.173 101.069 116.156 100.993 116.17 100.925C116.392 99.7877 126.113 96.1525 125.179 94.5297C124.275 92.9586 120.779 96.5791 114.679 98.0794C114.147 98.2104 126.179 92.9379 124.679 90.2249C123.982 88.964 115.148 94.9247 113.444 95.1045C113.264 95.1236 112.979 95.0003 113.084 94.8525C113.786 93.8667 122.246 89.0654 121.195 88.0701C121.166 88.0422 121.13 88.0135 121.101 87.9859C119.505 86.5046 112.151 92.7695 111.679 93.0173M71.179 89.5304C71.7295 91.7322 70.179 95.0297 65.679 98.0794M71.179 89.5304C72.8679 96.2857 96.0456 90.5823 100.685 92.0304C102.768 92.6803 101.778 92.5304 102.757 93.0173M87.679 43.6702C92.3879 43.3936 92.7164 41.5132 96.6657 43.6702M96.6657 43.6702C100.615 45.8273 119.322 60.6025 119.322 60.6025M96.6657 43.6702C99.5753 49.8171 97.4182 53.7665 100.685 62.3876C103.953 71.0088 110.179 78.0297 108.679 88.0297M119.322 60.6025C119.322 60.6025 125.83 64.5304 122.748 71.0194M119.322 60.6025C120.932 59.3929 124.488 56.3596 125.83 53.9022C127.172 51.4449 128.307 49.3678 128.706 48.6365M128.706 48.6365C128.693 49.0089 129.28 50.0893 131.737 51.4315C134.195 52.7736 138.96 53.5304 139.839 50.1591M128.706 48.6365C129.694 41.9597 130.189 29.5818 132.679 30.0301C135.062 30.4592 130.981 35.8585 134.2 37.3532C134.453 37.4707 134.738 37.3121 134.821 37.0455C135.933 33.4491 139.191 27.049 140.929 26.257C141.501 25.9968 136.894 37.7843 137.718 38.0304C138.386 38.2298 142.679 25.6222 145.179 27.29C145.684 27.6266 139.349 38.5745 139.839 39.0304C140.476 39.6239 146.179 28.303 147.679 29.1666C149.179 30.0301 143.431 37.5094 142.679 40.5301C142.458 41.4174 148.179 32.5301 149.179 33.0301C150.179 33.5301 145.308 40.7398 145.179 41.0301C143.179 45.5301 143.858 46.2774 139.839 50.1591M139.839 50.1591C137.771 58.0934 137.888 68.3335 133.998 75.4552C132.321 78.5269 127.247 88.8592 121.144 84.3865C116.262 80.8083 109.701 76.1309 106.43 73.7747M110.679 93.0173C109.179 92.0297 114.812 87.4677 112.179 86.0297C111.126 85.4545 107.179 92.6358 102.757 93.0173M87.458 70.7349L99.2461 68.2891C99.5418 68.2277 99.7161 67.9201 99.6166 67.6349L95.3048 55.2665C95.215 55.009 94.9355 54.871 94.6764 54.9561L85.1376 58.0932C84.9014 58.1709 84.7582 58.4103 84.8014 58.6552L86.864 70.3323C86.9131 70.61 87.1819 70.7922 87.458 70.7349Z" stroke="white"/>
<path d="M76.8323 115.448C78.099 117.95 79.3907 120.407 80.8126 122.763M123.965 105.299C163.679 103.53 166.179 106.53 166.679 147.53M166.679 147.53C167.486 166.613 172.647 188.834 172.712 204.235C172.713 204.553 173.004 204.786 173.316 204.721C179.283 203.462 190.414 201.092 193.34 209.847C196.262 218.592 166.514 227.669 159.131 227.625C153.226 227.59 152.019 220.133 152.155 216.408L149.902 186.18C149.899 186.14 149.891 186.102 149.879 186.064C148.66 182.329 145.793 173.135 143.923 165.765C142.115 158.639 141.641 140.528 141.622 135.111C141.621 134.803 141.334 134.576 141.029 134.624C100.576 141.001 89.9794 137.956 80.8126 122.763M166.679 147.53C170.795 136.866 188.375 110.83 183.425 100.743C178.841 91.403 163.682 83.6929 132.955 85.7107M137.179 145.53C125.679 155.03 110.627 176.858 113.179 180.53C116.369 185.121 139.179 199.53 143.923 198.53C148.667 197.53 149.017 188.92 141.621 186.12C132.378 182.62 135.179 179.03 137.179 176.03C138.779 173.63 140.04 172.03 141.621 171.03M69.679 48.0304C62.8942 50.0218 48.5645 48.8923 47.679 63.0304M47.679 63.0304C46.7936 77.1684 44.8459 109.584 54.179 117.53C61.6456 123.887 73.8036 124.817 80.8126 122.763M47.679 63.0304C51.0715 62.0347 57.179 60.0304 61.179 60.0304" stroke="white"/>
<path d="M95.9869 43.87C100.939 36.8896 105.359 24.6181 90.679 16.0304C75.9991 7.44265 64.8593 20.3075 64.0716 29.2869C63.3085 37.9857 68.2142 43.9758 73.679 47.5304" stroke="white"/>
<path d="M99.179 44.5304C104.866 36.5146 108.715 24.4608 91.8582 14.5994C75.001 4.738 62.6949 18.6138 61.7904 28.9249C60.9141 38.9138 67.3251 46.3407 73.6005 50.4225" stroke="white" stroke-linecap="round"/>
<path d="M86.7718 38.8369C85.6616 38.7966 87.6605 44.3915 88.9377 46.2645C88.9546 46.2893 88.9687 46.3133 88.9797 46.3412C89.2895 47.1285 88.7511 49.0734 85.05 49.2909C81.824 49.4804 79.0906 47.85 77.6958 46.6506C77.4139 46.4082 77.5305 45.9709 77.8871 45.8662L81.4367 44.8244C81.6787 44.7534 81.8299 44.5133 81.7894 44.2644L80.9731 39.2424C80.9553 39.1326 80.9742 39.0206 81.0275 38.923L82.863 35.5625C83.3424 34.6849 78.8732 34.5228 78.0361 32.9261C77.4198 31.7507 78.6256 31.1846 79.4647 31.0088C79.5974 30.981 79.7174 30.9102 79.7973 30.8006C80.6259 29.6652 82.1922 27.6531 82.7079 27.5018C83.3864 27.3026 89.3712 28.8623 90.2488 29.3416C90.7344 29.6068 90.3826 30.1413 89.9169 30.5865C89.6482 30.8433 89.6739 31.3065 90.0001 31.4847L93.3439 33.311C93.7543 33.5351 93.6638 34.1704 93.2157 34.3041C92.0931 34.6391 91.0044 35.1316 91.3626 35.6471C92.0005 36.5653 91.3221 36.7644 90.603 38.0809C89.884 39.3973 87.8891 38.8774 86.7718 38.8369Z" stroke="white"/>
<path d="M90.448 30.0201C92.524 28.3054 96.038 23.9578 86.9815 20.7204C80.1479 18.2777 78.2403 22.3436 78.0891 25.068C78.0743 25.3345 77.8712 25.5565 77.6064 25.59C75.3764 25.8723 71.9313 27.1913 72.9695 30.7285C74.3634 35.4779 79.6697 37.2367 78.9102 39.6705C78.3025 41.6174 80.3852 42.1853 81.5025 42.2258" stroke="white"/>
<path d="M197.679 17.0304C210.325 17.0304 218.679 27.2672 218.679 40.0304C218.679 46.407 216.588 51.5195 212.949 55.0382C209.307 58.5588 204.065 60.5304 197.679 60.5304C191.29 60.5304 185.535 58.5557 181.386 55.0167C177.245 51.484 174.679 46.3731 174.679 40.0304C174.679 27.3278 184.976 17.0304 197.679 17.0304Z" stroke="white"/>
<path d="M46.1898 135.03C52.4854 135.03 56.679 140.179 56.679 146.677C56.679 149.92 55.6287 152.496 53.8226 154.262C52.015 156.029 49.4016 157.03 46.1898 157.03C42.9747 157.03 40.0934 156.026 38.0238 154.24C35.9612 152.461 34.6792 149.886 34.679 146.677C34.679 140.24 39.8378 135.031 46.1898 135.03Z" stroke="white"/>
<path d="M34.7326 149.463C26.4714 154.727 18.1056 160.179 20.64 161.427C24.5276 163.342 71.179 137.976 71.179 134.148C71.179 131.982 59.1922 136.062 54.1707 137.976" stroke="white" stroke-linecap="round"/>
</svg>
